<mxfile host="app.diagrams.net" agent="Mozilla/5.0 (Windows NT 10.0; Win64; x64) AppleWebKit/537.36 (KHTML, like Gecko) Chrome/134.0.0.0 Safari/537.36" version="26.1.1">
  <diagram name="PaginÄƒ-1" id="3BR3LepZIZhmN37r3t4s">
    <mxGraphModel dx="1837" dy="911" grid="1" gridSize="10" guides="1" tooltips="1" connect="1" arrows="1" fold="1" page="1" pageScale="1" pageWidth="827" pageHeight="1169" math="0" shadow="0">
      <root>
        <mxCell id="0" />
        <mxCell id="1" parent="0" />
        <mxCell id="Ow1ZxDqY4DtTdchNo8-F-1" value="" style="strokeWidth=1;shadow=0;dashed=0;align=center;html=1;shape=mxgraph.mockup.containers.browserWindow;rSize=0;strokeColor=#666666;strokeColor2=#008cff;strokeColor3=#c4c4c4;mainText=,;recursiveResize=0;" vertex="1" parent="1">
          <mxGeometry x="30" y="40" width="1310" height="740" as="geometry" />
        </mxCell>
        <mxCell id="Ow1ZxDqY4DtTdchNo8-F-2" value="Grupuri" style="strokeWidth=1;shadow=0;dashed=0;align=center;html=1;shape=mxgraph.mockup.containers.anchor;fontSize=17;fontColor=#666666;align=left;whiteSpace=wrap;" vertex="1" parent="Ow1ZxDqY4DtTdchNo8-F-1">
          <mxGeometry x="60" y="12" width="110" height="26" as="geometry" />
        </mxCell>
        <mxCell id="Ow1ZxDqY4DtTdchNo8-F-3" value="https://www.notiteonline.com" style="strokeWidth=1;shadow=0;dashed=0;align=center;html=1;shape=mxgraph.mockup.containers.anchor;rSize=0;fontSize=17;fontColor=#666666;align=left;" vertex="1" parent="Ow1ZxDqY4DtTdchNo8-F-1">
          <mxGeometry x="130" y="60" width="250" height="26" as="geometry" />
        </mxCell>
        <mxCell id="Ow1ZxDqY4DtTdchNo8-F-4" value="" style="swimlane;shape=mxgraph.bootstrap.anchor;strokeColor=#666666;fillColor=#ffffff;fontColor=#0000FF;fontStyle=0;childLayout=stackLayout;horizontal=0;startSize=0;horizontalStack=1;resizeParent=1;resizeParentMax=0;resizeLast=0;collapsible=0;marginBottom=0;whiteSpace=wrap;html=1;" vertex="1" parent="Ow1ZxDqY4DtTdchNo8-F-1">
          <mxGeometry x="30" y="140" width="690" height="25" as="geometry" />
        </mxCell>
        <mxCell id="Ow1ZxDqY4DtTdchNo8-F-5" value="Grupuri de studiu" style="text;strokeColor=#008CFF;align=center;verticalAlign=middle;spacingLeft=10;spacingRight=10;overflow=hidden;points=[[0,0.5],[1,0.5]];portConstraint=eastwest;rotatable=0;whiteSpace=wrap;html=1;fillColor=#008CFF;fontColor=#ffffff;fontSize=17;" vertex="1" parent="Ow1ZxDqY4DtTdchNo8-F-4">
          <mxGeometry width="170" height="25" as="geometry" />
        </mxCell>
        <mxCell id="Ow1ZxDqY4DtTdchNo8-F-6" value="&lt;span style=&quot;color: rgb(102, 102, 102); text-align: left;&quot;&gt;Pagina principala&lt;/span&gt;" style="text;strokeColor=inherit;align=center;verticalAlign=middle;spacingLeft=10;spacingRight=10;overflow=hidden;points=[[0,0.5],[1,0.5]];portConstraint=eastwest;rotatable=0;whiteSpace=wrap;html=1;fillColor=inherit;fontColor=inherit;fontSize=17;" vertex="1" parent="Ow1ZxDqY4DtTdchNo8-F-4">
          <mxGeometry x="170" width="180" height="25" as="geometry" />
        </mxCell>
        <mxCell id="Ow1ZxDqY4DtTdchNo8-F-7" value="&lt;span style=&quot;color: rgb(102, 102, 102); text-align: left;&quot;&gt;Notite&lt;/span&gt;" style="text;strokeColor=inherit;align=center;verticalAlign=middle;spacingLeft=10;spacingRight=10;overflow=hidden;points=[[0,0.5],[1,0.5]];portConstraint=eastwest;rotatable=0;whiteSpace=wrap;html=1;fillColor=inherit;fontColor=inherit;fontSize=17;" vertex="1" parent="Ow1ZxDqY4DtTdchNo8-F-4">
          <mxGeometry x="350" width="125" height="25" as="geometry" />
        </mxCell>
        <mxCell id="Ow1ZxDqY4DtTdchNo8-F-8" value="&lt;span style=&quot;color: rgb(102, 102, 102); text-align: left;&quot;&gt;Intrebari si raspunsuri&lt;/span&gt;" style="text;strokeColor=inherit;align=center;verticalAlign=middle;spacingLeft=10;spacingRight=10;overflow=hidden;points=[[0,0.5],[1,0.5]];portConstraint=eastwest;rotatable=0;whiteSpace=wrap;html=1;fillColor=inherit;fontColor=inherit;fontSize=17;" vertex="1" parent="Ow1ZxDqY4DtTdchNo8-F-4">
          <mxGeometry x="475" width="215" height="25" as="geometry" />
        </mxCell>
        <mxCell id="Ow1ZxDqY4DtTdchNo8-F-9" value="Cauta un grup de studiu" style="strokeWidth=1;shadow=0;dashed=0;align=center;html=1;shape=mxgraph.mockup.containers.window;align=left;verticalAlign=top;spacingLeft=8;strokeColor2=#008cff;strokeColor3=#c4c4c4;fontColor=#666666;mainText=;fontSize=17;labelBackgroundColor=none;whiteSpace=wrap;" vertex="1" parent="Ow1ZxDqY4DtTdchNo8-F-1">
          <mxGeometry x="40" y="240" width="530" height="420" as="geometry" />
        </mxCell>
        <mxCell id="Ow1ZxDqY4DtTdchNo8-F-10" value="Creeaza un grup de studiu" style="strokeWidth=1;shadow=0;dashed=0;align=center;html=1;shape=mxgraph.mockup.containers.window;align=left;verticalAlign=top;spacingLeft=8;strokeColor2=#008cff;strokeColor3=#c4c4c4;fontColor=#666666;mainText=;fontSize=17;labelBackgroundColor=none;whiteSpace=wrap;" vertex="1" parent="Ow1ZxDqY4DtTdchNo8-F-1">
          <mxGeometry x="620" y="240" width="530" height="420" as="geometry" />
        </mxCell>
        <mxCell id="Ow1ZxDqY4DtTdchNo8-F-11" value="" style="verticalLabelPosition=bottom;shadow=0;dashed=0;align=center;html=1;verticalAlign=top;strokeWidth=1;shape=mxgraph.mockup.containers.userMale;strokeColor=#666666;strokeColor2=#008cff;" vertex="1" parent="Ow1ZxDqY4DtTdchNo8-F-1">
          <mxGeometry x="1230" y="130" width="60" height="60" as="geometry" />
        </mxCell>
      </root>
    </mxGraphModel>
  </diagram>
</mxfile>
